<mxfile host="app.diagrams.net" agent="Mozilla/5.0 (Windows NT 10.0; Win64; x64) AppleWebKit/537.36 (KHTML, like Gecko) Chrome/130.0.0.0 Safari/537.36" version="24.8.4">
  <diagram name="Page-1" id="5nmp_khUwBZHWuIuz6i_">
    <mxGraphModel dx="1500" dy="807" grid="1" gridSize="10" guides="1" tooltips="1" connect="1" arrows="1" fold="1" page="1" pageScale="1" pageWidth="1100" pageHeight="850" math="0" shadow="0">
      <root>
        <mxCell id="0" />
        <mxCell id="1" parent="0" />
        <mxCell id="yCWG2WoXC2Fb63DRuCyY-14" value="" style="rounded=0;whiteSpace=wrap;html=1;fillColor=#dae8fc;strokeColor=#6c8ebf;" vertex="1" parent="1">
          <mxGeometry x="210" y="40" width="680" height="160" as="geometry" />
        </mxCell>
        <mxCell id="yCWG2WoXC2Fb63DRuCyY-15" value="&lt;h1 style=&quot;font-size: 16px;&quot;&gt;&lt;font face=&quot;Courier New&quot; style=&quot;font-size: 16px;&quot;&gt;&lt;b style=&quot;&quot;&gt;Data&lt;br&gt;&lt;/b&gt;&lt;b style=&quot;&quot;&gt;Extraction&lt;/b&gt;&lt;/font&gt;&lt;/h1&gt;" style="shape=step;perimeter=stepPerimeter;whiteSpace=wrap;html=1;fixedSize=1;fillColor=#fff2cc;strokeColor=#d6b656;" vertex="1" parent="1">
          <mxGeometry x="230" y="65" width="160" height="110" as="geometry" />
        </mxCell>
        <mxCell id="yCWG2WoXC2Fb63DRuCyY-20" value="&lt;h1&gt;&lt;b style=&quot;font-size: 16px;&quot;&gt;&lt;font face=&quot;Courier New&quot; style=&quot;font-size: 16px;&quot;&gt;Data&amp;nbsp;Cleaning and T&lt;span style=&quot;background-color: initial;&quot;&gt;ransformation&lt;/span&gt;&lt;/font&gt;&lt;/b&gt;&lt;/h1&gt;" style="shape=step;perimeter=stepPerimeter;whiteSpace=wrap;html=1;fixedSize=1;fillColor=#fff2cc;strokeColor=#d6b656;" vertex="1" parent="1">
          <mxGeometry x="390" y="65" width="160" height="110" as="geometry" />
        </mxCell>
        <mxCell id="yCWG2WoXC2Fb63DRuCyY-21" value="&lt;h3&gt;&lt;b style=&quot;&quot;&gt;&lt;font style=&quot;font-size: 16px;&quot; face=&quot;Courier New&quot;&gt;Content Generation&lt;/font&gt;&lt;/b&gt;&lt;/h3&gt;" style="shape=step;perimeter=stepPerimeter;whiteSpace=wrap;html=1;fixedSize=1;fillColor=#fff2cc;strokeColor=#d6b656;" vertex="1" parent="1">
          <mxGeometry x="550" y="65" width="160" height="110" as="geometry" />
        </mxCell>
        <mxCell id="yCWG2WoXC2Fb63DRuCyY-22" value="&lt;h3&gt;&lt;b style=&quot;&quot;&gt;&lt;font style=&quot;font-size: 16px;&quot; face=&quot;Courier New&quot;&gt;Social Media Posting&lt;/font&gt;&lt;/b&gt;&lt;/h3&gt;" style="shape=step;perimeter=stepPerimeter;whiteSpace=wrap;html=1;fixedSize=1;fillColor=#fff2cc;strokeColor=#d6b656;" vertex="1" parent="1">
          <mxGeometry x="710" y="65" width="160" height="110" as="geometry" />
        </mxCell>
      </root>
    </mxGraphModel>
  </diagram>
</mxfile>
